<?xml version="1.0" encoding="utf-8"?>
<!-- Generator: Adobe Illustrator 21.1.0, SVG Export Plug-In . SVG Version: 6.00 Build 0)  -->
<svg version="1.1" id="Layer_1" xmlns="http://www.w3.org/2000/svg" xmlns:xlink="http://www.w3.org/1999/xlink" x="0px" y="0px"
	 viewBox="0 0 715.3 306.1" style="enable-background:new 0 0 715.3 306.1;" xml:space="preserve">
<style type="text/css">
	.st0{fill:#C7C8CA;}
</style>
<path class="st0" d="M168,214.3c-6.4,4.4-11.2,13.1-9.7,21.5c0.9,5.3,3.3,9.5,8.4,12.2c4.9,2.7,10.3,2.7,15.3,0.1
	c6.3-3.3,10.4-10,11.2-17.9l0-0.2l1.5-15.1c0.5-5.2,3.2-9.9,7.5-12.8l8-6.1c0.6-0.4,1.4,0,1.4,0.8l-3.1,35c-1.3,13-8.5,24.2-19.3,30
	c-4.5,2.4-9.3,3.6-14,3.8c-5.4,0.2-10.9-1.1-16-3.9c-9.6-5.3-16.1-14.3-17.1-24.8c-1.1-12.5,3.7-25.7,16-34.6l38-25.8
	c0.7-0.5,1.2-1.3,1.1-2.2c-0.1-2.3-1.5-4.4-2.6-5.3c-7.6-5.6-22.9,4.1-32.1,8.9L143.6,188c-1.3,0.7-2.8-0.7-2.1-2.1l35.7-68.8H159
	c-3.8,0-6.8-3.3-6.4-7.1l0.9-7.8c0.1-0.4,0.4-0.8,0.9-0.8h44.6l0,0l1.5,0c0.6,0,1,0.6,0.7,1.1c-4.1,8-29.1,56.5-29.1,56.5
	c9.1-5.2,21.5-7.9,29.2-4.4c6.5,3,9.5,8.1,10.9,13.2l84.5-53.9c1-0.6,1.4-1.8,1.1-2.9C279.5,48.6,221.4,2.9,152.8,3.5
	C71.7,4.2,5.4,70.3,4.5,151.5c-0.9,83.6,66.7,151.6,150.2,151.3c80.4-0.3,148.4-68.1,149-148.5c0.1-8.4-0.6-16.7-1.9-24.7
	c-0.2-1.2-1.6-1.8-2.6-1.2L168,214.3z M133.1,176.1c-7.8,3.2-16.5,4.7-24.2,4.9c-0.3,0-0.6,0-0.9,0c-12.7,0.1-24.4-4.3-33.2-12.4
	c-8.6-8-13.8-19.2-14.7-31.4c-1-13.8,3.6-26.9,13-37c9.2-10,22.3-15.7,35.8-15.8c9.3-0.1,18.4,2.5,26.3,7.4l4.2,2.7l-2.7,23.1
	c-0.1,0.4-0.4,0.7-0.7,0.7l-7.5,0.1c-3.7,0-6.7-3-6.3-6.7c0.4-4.5,1.1-9.2,1.1-9.2c-4.4-1.9-9.5-2.9-14.3-2.8
	c-9.5,0.1-18.3,4-24.8,11c-6.5,7-9.6,16.1-9,25.7c1.3,18,15,30.1,33.2,29.7c17.2-0.4,28.8-5.6,39.1-13.6c0.6-0.4,1.3,0.2,1,0.8
	l-8.8,16.9C138.4,172.7,136,174.9,133.1,176.1z"/>
<g id="XMLID_11_">
	<path id="XMLID_66_" class="st0" d="M359.6,108.4c-4.6,0-8.7-1.7-11.7-4.8c-4.4-4.4-4.3-9.4-4.3-18c0-8.6-0.1-13.6,4.3-18
		c3.1-3.1,7.1-4.8,11.7-4.8c7.6,0,13.4,4.1,15.5,11.7c0.3,1-0.5,2-1.5,2h-3.8c-0.7,0-1.2-0.5-1.5-1.1c-1.3-3.9-4.2-6.6-8.7-6.6
		c-2.6,0-5,1-6.6,2.7c-2.2,2.4-2.7,5-2.7,13.9c0,9,0.5,11.6,2.7,13.9c1.6,1.7,4,2.7,6.6,2.7c4.5,0,7.5-2.6,8.8-6.6
		c0.2-0.6,0.8-1.1,1.5-1.1h3.7c1,0,1.8,1,1.5,2C373,104.3,367.1,108.4,359.6,108.4z"/>
	<path id="XMLID_64_" class="st0" d="M407,106.4V88.5h-18.1v17.9c0,0.9-0.7,1.6-1.6,1.6h-3.6c-0.9,0-1.6-0.7-1.6-1.6V64.9
		c0-0.9,0.7-1.6,1.6-1.6h3.6c0.9,0,1.6,0.7,1.6,1.6v17.5H407V64.9c0-0.9,0.7-1.6,1.6-1.6h3.6c0.9,0,1.6,0.7,1.6,1.6v41.5
		c0,0.9-0.7,1.6-1.6,1.6h-3.6C407.7,108,407,107.3,407,106.4z"/>
	<path id="XMLID_61_" class="st0" d="M449.5,106.9l-2.7-7.9h-17.6l-2.7,7.9c-0.2,0.6-0.8,1.1-1.5,1.1h-3.8c-1.1,0-1.9-1.1-1.5-2.1
		l15.2-41.5c0.2-0.6,0.8-1,1.5-1h3.3c0.7,0,1.3,0.4,1.5,1l15.2,41.5c0.4,1-0.4,2.1-1.5,2.1H451C450.3,108,449.7,107.6,449.5,106.9z
		 M438.1,73.4l-7,19.8h13.8L438.1,73.4z"/>
	<path id="XMLID_59_" class="st0" d="M489.2,107.3L469,76.6v29.9c0,0.9-0.7,1.6-1.6,1.6h-3.6c-0.9,0-1.6-0.7-1.6-1.6V64.9
		c0-0.9,0.7-1.6,1.6-1.6h3.8c0.5,0,1,0.3,1.3,0.7l20.2,30.7V64.9c0-0.9,0.7-1.6,1.6-1.6h3.6c0.9,0,1.6,0.7,1.6,1.6v41.5
		c0,0.9-0.7,1.6-1.6,1.6h-3.8C489.9,108,489.4,107.7,489.2,107.3z"/>
	<path id="XMLID_57_" class="st0" d="M343.6,170.9v-3.8c0-0.3,0.1-0.6,0.2-0.8l20.4-32.4H346c-0.9,0-1.6-0.7-1.6-1.6v-2.9
		c0-0.9,0.7-1.6,1.6-1.6h24.6c0.9,0,1.6,0.7,1.6,1.6v3.5c0,0.3-0.1,0.6-0.2,0.8l-20.5,32.7h19.2c0.9,0,1.6,0.7,1.6,1.6v2.9
		c0,0.9-0.7,1.6-1.6,1.6h-25.5C344.3,172.4,343.6,171.7,343.6,170.9z"/>
	<path id="XMLID_55_" class="st0" d="M394,172.8c-9.1,0-16-6.2-16-15.4v-28.1c0-0.9,0.7-1.6,1.6-1.6h3.6c0.9,0,1.6,0.7,1.6,1.6v27.7
		c0,6,3.6,9.7,9.2,9.7c5.6,0,9.3-3.7,9.3-9.7v-27.7c0-0.9,0.7-1.6,1.6-1.6h3.6c0.9,0,1.6,0.7,1.6,1.6v28.1
		C410.1,166.6,403.1,172.8,394,172.8z"/>
	<path id="XMLID_53_" class="st0" d="M431.9,172.8c-4.6,0-8.7-1.7-11.7-4.8c-4.4-4.4-4.3-9.4-4.3-18c0-8.6-0.1-13.6,4.3-18
		c3.1-3.1,7.1-4.8,11.7-4.8c7.6,0,13.4,4.1,15.5,11.7c0.3,1-0.5,2-1.5,2H442c-0.7,0-1.2-0.5-1.5-1.1c-1.3-3.9-4.2-6.6-8.7-6.6
		c-2.6,0-5,1-6.6,2.7c-2.2,2.4-2.7,5-2.7,13.9c0,9,0.5,11.6,2.7,13.9c1.6,1.7,4,2.7,6.6,2.7c4.5,0,7.5-2.6,8.8-6.6
		c0.2-0.6,0.8-1.1,1.5-1.1h5.7C446.3,168,439.9,172.8,431.9,172.8z"/>
	<path id="XMLID_51_" class="st0" d="M480.7,171.6l-12.1-21.2l-7.5,9v11.4c0,0.9-0.7,1.6-1.6,1.6h-3.6c-0.9,0-1.6-0.7-1.6-1.6v-41.5
		c0-0.9,0.7-1.6,1.6-1.6h3.6c0.9,0,1.6,0.7,1.6,1.6v20.9l17.8-21.9c0.3-0.4,0.7-0.6,1.2-0.6h4.2c1.3,0,2.1,1.6,1.2,2.6l-12.4,14.9
		l14.6,24.8c0.6,1.1-0.1,2.4-1.4,2.4h-4.3C481.5,172.4,481,172.1,480.7,171.6z"/>
	<path id="XMLID_48_" class="st0" d="M494.4,170.9v-41.5c0-0.9,0.7-1.6,1.6-1.6h25.4c0.9,0,1.6,0.7,1.6,1.6v2.9
		c0,0.9-0.7,1.6-1.6,1.6h-20.2v13.1h17c0.9,0,1.6,0.7,1.6,1.6v2.9c0,0.9-0.7,1.6-1.6,1.6h-17v13.4h20.2c0.9,0,1.6,0.7,1.6,1.6v2.9
		c0,0.9-0.7,1.6-1.6,1.6H496C495.1,172.4,494.4,171.7,494.4,170.9z"/>
	<path id="XMLID_44_" class="st0" d="M554.1,171.6l-9-18h-8.5v17.3c0,0.9-0.7,1.6-1.6,1.6h-3.6c-0.9,0-1.6-0.7-1.6-1.6v-41.5
		c0-0.9,0.7-1.6,1.6-1.6h15.8c8.5,0,13.9,5.5,13.9,13.1c0,6.4-3.9,10.5-8.9,11.9l9.1,17.5c0.5,1.1-0.2,2.3-1.4,2.3h-4.3
		C554.9,172.4,554.4,172.1,554.1,171.6z M546.7,133.8h-10v14h10c4.5,0,7.6-2.6,7.6-7C554.3,136.5,551.2,133.8,546.7,133.8z"/>
	<path id="XMLID_10_" class="st0" d="M586.5,172.4H570c-0.9,0-1.6-0.7-1.6-1.6v-41.5c0-0.9,0.7-1.6,1.6-1.6h15.8
		c8.3,0,13.5,4.7,13.5,12.2c0,4.8-3,8.3-6,9.5c3.5,1.4,6.7,4.7,6.7,10.4C600,168,594.5,172.4,586.5,172.4z M585.3,133.8h-10v12.8h10
		c4.3,0,7.3-2.3,7.3-6.4C592.6,136.1,589.6,133.8,585.3,133.8z M585.9,152.7h-10.7v13.6h10.7c4.7,0,7.3-2.9,7.3-6.8
		C593.3,155.5,590.6,152.7,585.9,152.7z"/>
	<path id="XMLID_38_" class="st0" d="M606.3,170.9v-41.5c0-0.9,0.7-1.6,1.6-1.6h25.4c0.9,0,1.6,0.7,1.6,1.6v2.9
		c0,0.9-0.7,1.6-1.6,1.6h-20.2v13.1h17c0.9,0,1.6,0.7,1.6,1.6v2.9c0,0.9-0.7,1.6-1.6,1.6h-17v13.4h20.2c0.9,0,1.6,0.7,1.6,1.6v2.9
		c0,0.9-0.7,1.6-1.6,1.6h-25.4C607,172.4,606.3,171.7,606.3,170.9z"/>
	<path id="XMLID_35_" class="st0" d="M665.9,171.6l-9-18h-8.5v17.3c0,0.9-0.7,1.6-1.6,1.6h-3.6c-0.9,0-1.6-0.7-1.6-1.6v-41.5
		c0-0.9,0.7-1.6,1.6-1.6H659c8.5,0,13.9,5.5,13.9,13.1c0,6.4-3.9,10.5-8.9,11.9l9.1,17.5c0.5,1.1-0.2,2.3-1.4,2.3h-4.3
		C666.7,172.4,666.2,172.1,665.9,171.6z M658.5,133.8h-10v14h10c4.5,0,7.6-2.6,7.6-7C666.1,136.5,663,133.8,658.5,133.8z"/>
	<path id="XMLID_33_" class="st0" d="M707,167.7c-3.4,3.6-7.6,5.1-12.3,5.1c-4.6,0-8.7-1.7-11.7-4.8c-4.4-4.4-4.3-9.4-4.3-18
		c0-8.6-0.1-13.6,4.3-18c3.1-3.1,7-4.8,11.7-4.8c8.6,0,14,5.2,15.8,11.9c0.3,1-0.5,2-1.5,2h-3.7c-0.7,0-1.3-0.4-1.5-1.1
		c-1.3-4.3-4.5-6.7-9.1-6.7c-2.6,0-5,1.1-6.6,2.8c-2.2,2.4-2.7,4.9-2.7,13.9c0,9,0.5,11.6,2.7,13.9c1.6,1.7,4,2.7,6.6,2.7
		c3,0,5.5-1.1,7.3-3.1c1.6-1.9,2.3-4.1,2.3-7V154h-8c-0.9,0-1.6-0.7-1.6-1.6v-2.6c0-0.9,0.7-1.6,1.6-1.6h13.2c0.9,0,1.6,0.7,1.6,1.6
		v5.3C711,160.9,710,164.6,707,167.7z"/>
	<path id="XMLID_31_" class="st0" d="M346.4,235.3v-41.5c0-0.9,0.7-1.6,1.6-1.6h3.6c0.9,0,1.6,0.7,1.6,1.6v41.5
		c0,0.9-0.7,1.6-1.6,1.6H348C347.1,236.9,346.4,236.1,346.4,235.3z"/>
	<path id="XMLID_29_" class="st0" d="M390.6,236.1l-20.2-30.7v29.9c0,0.9-0.7,1.6-1.6,1.6h-3.6c-0.9,0-1.6-0.7-1.6-1.6v-41.5
		c0-0.9,0.7-1.6,1.6-1.6h3.8c0.5,0,1,0.3,1.3,0.7l20.2,30.7v-29.8c0-0.9,0.7-1.6,1.6-1.6h3.6c0.9,0,1.6,0.7,1.6,1.6v41.5
		c0,0.9-0.7,1.6-1.6,1.6h-3.8C391.4,236.9,390.9,236.6,390.6,236.1z"/>
	<path id="XMLID_27_" class="st0" d="M407.7,235.3v-41.5c0-0.9,0.7-1.6,1.6-1.6h3.6c0.9,0,1.6,0.7,1.6,1.6v41.5
		c0,0.9-0.7,1.6-1.6,1.6h-3.6C408.4,236.9,407.7,236.1,407.7,235.3z"/>
	<path id="XMLID_25_" class="st0" d="M440,198.2v37c0,0.9-0.7,1.6-1.6,1.6h-3.6c-0.9,0-1.6-0.7-1.6-1.6v-37h-12.3v-4.5
		c0-0.9,0.7-1.6,1.6-1.6h28.2c0.9,0,1.6,0.7,1.6,1.6v4.5H440z"/>
	<path id="XMLID_23_" class="st0" d="M460,235.3v-41.5c0-0.9,0.7-1.6,1.6-1.6h3.6c0.9,0,1.6,0.7,1.6,1.6v41.5c0,0.9-0.7,1.6-1.6,1.6
		h-3.6C460.8,236.9,460,236.1,460,235.3z"/>
	<path id="XMLID_20_" class="st0" d="M503.8,235.8l-2.7-7.9h-17.6l-2.7,7.9c-0.2,0.6-0.8,1.1-1.5,1.1h-3.8c-1.1,0-1.9-1.1-1.5-2.1
		l15.2-41.5c0.2-0.6,0.8-1,1.5-1h3.3c0.7,0,1.3,0.4,1.5,1l15.2,41.5c0.4,1-0.4,2.1-1.5,2.1h-3.8C504.6,236.9,504,236.4,503.8,235.8z
		 M492.4,202.3l-7,19.8h13.8L492.4,202.3z"/>
	<path id="XMLID_18_" class="st0" d="M526.6,198.2v37c0,0.9-0.7,1.6-1.6,1.6h-3.6c-0.9,0-1.6-0.7-1.6-1.6v-37h-10.7
		c-0.9,0-1.6-0.7-1.6-1.6v-2.9c0-0.9,0.7-1.6,1.6-1.6h28.2c0.9,0,1.6,0.7,1.6,1.6v2.9c0,0.9-0.7,1.6-1.6,1.6H526.6z"/>
	<path id="XMLID_16_" class="st0" d="M545.4,235.3v-41.5c0-0.9,0.7-1.6,1.6-1.6h3.6c0.9,0,1.6,0.7,1.6,1.6v41.5
		c0,0.9-0.7,1.6-1.6,1.6h-3.6C546.1,236.9,545.4,236.1,545.4,235.3z"/>
	<path id="XMLID_14_" class="st0" d="M575.9,236.9h-3c-0.7,0-1.3-0.4-1.5-1.1l-13.7-41.5c-0.3-1,0.4-2.1,1.5-2.1h3.7
		c0.7,0,1.3,0.4,1.5,1.1l9.9,31.4l9.9-31.4c0.2-0.7,0.8-1.1,1.5-1.1h3.8c1.1,0,1.8,1.1,1.5,2.1l-13.8,41.5
		C577.2,236.4,576.5,236.9,575.9,236.9z"/>
	<path id="XMLID_12_" class="st0" d="M596.7,235.3v-41.5c0-0.9,0.7-1.6,1.6-1.6h25.4c0.9,0,1.6,0.7,1.6,1.6v2.9
		c0,0.9-0.7,1.6-1.6,1.6h-20.2v13.1h17c0.9,0,1.6,0.7,1.6,1.6v2.9c0,0.9-0.7,1.6-1.6,1.6h-17v13.4h20.2c0.9,0,1.6,0.7,1.6,1.6v2.9
		c0,0.9-0.7,1.6-1.6,1.6h-25.4C597.4,236.9,596.7,236.1,596.7,235.3z"/>
</g>
</svg>
