<?xml version="1.0" encoding="utf-8"?>
<!-- Generator: Adobe Illustrator 16.0.0, SVG Export Plug-In . SVG Version: 6.00 Build 0)  -->
<!DOCTYPE svg PUBLIC "-//W3C//DTD SVG 1.1//EN" "http://www.w3.org/Graphics/SVG/1.1/DTD/svg11.dtd">
<svg version="1.1" id="Layer_1" xmlns="http://www.w3.org/2000/svg" xmlns:xlink="http://www.w3.org/1999/xlink" x="0px" y="0px"
	 width="715.267px" height="306.106px" viewBox="0 0 715.267 306.106" enable-background="new 0 0 715.267 306.106"
	 xml:space="preserve">
<path fill="#FFFFFF" d="M167.955,214.264c-6.447,4.402-11.182,13.136-9.744,21.509c0.907,5.281,3.323,9.457,8.421,12.245
	c4.895,2.676,10.33,2.693,15.304,0.051c6.261-3.328,10.438-10.012,11.172-17.88l0.027-0.232l1.507-15.132
	c0.454-5.169,3.215-9.856,7.516-12.76l8.028-6.066c0.593-0.448,1.437,0.016,1.376,0.757l-3.055,34.998
	c-1.256,13.018-8.467,24.22-19.308,29.981c-4.479,2.382-9.256,3.64-14.038,3.774c-5.449,0.153-10.91-1.15-15.957-3.91
	c-9.621-5.261-16.098-14.292-17.061-24.773c-1.143-12.465,3.684-25.679,16.035-34.564l38.015-25.842
	c0.73-0.497,1.172-1.333,1.136-2.215c-0.092-2.272-1.502-4.44-2.605-5.261c-7.574-5.635-22.89,4.113-32.088,8.862l-19.055,10.195
	c-1.341,0.693-2.782-0.746-2.089-2.088l35.706-68.799h-18.214c-3.827,0-6.801-3.335-6.368-7.138l0.89-7.766
	c0.05-0.435,0.417-0.763,0.855-0.763h44.564l-0.014,0.034l1.53-0.015c0.585-0.005,0.965,0.61,0.697,1.128
	c-4.141,7.983-29.08,56.542-29.08,56.542c9.109-5.21,21.521-7.907,29.181-4.406c6.47,2.958,9.519,8.097,10.857,13.169l84.536-53.857
	c0.966-0.615,1.421-1.797,1.1-2.897C279.471,48.558,221.417,2.938,152.795,3.528C71.679,4.225,5.396,70.347,4.514,151.461
	c-0.91,83.591,66.747,151.602,150.206,151.27c80.425-0.32,148.406-68.07,148.992-148.493c0.061-8.427-0.577-16.693-1.856-24.746
	c-0.193-1.22-1.589-1.833-2.631-1.169L167.955,214.264z M133.083,176.1c-7.789,3.217-16.459,4.688-24.157,4.89
	c-0.313,0.008-0.626,0.014-0.938,0.018c-12.694,0.111-24.442-4.275-33.168-12.412c-8.615-8.032-13.838-19.184-14.704-31.412
	c-0.977-13.771,3.624-26.911,12.957-37.016c9.201-9.965,22.255-15.728,35.814-15.848c9.32-0.081,18.42,2.494,26.316,7.369
	l4.229,2.692l-2.728,23.147c-0.052,0.375-0.37,0.653-0.748,0.657l-7.46,0.066c-3.728,0.033-6.662-2.991-6.34-6.705
	c0.391-4.515,1.141-9.212,1.141-9.212c-4.362-1.898-9.456-2.885-14.276-2.842c-9.52,0.083-18.319,3.994-24.779,10.99
	c-6.456,6.989-9.637,16.114-8.961,25.658c1.273,17.96,14.973,30.11,33.247,29.73c17.179-0.357,28.839-5.646,39.063-13.629
	c0.559-0.437,1.316,0.19,0.989,0.818l-8.772,16.89C138.366,172.729,135.979,174.902,133.083,176.1z"/>
<g id="XMLID_11_">
	<path id="XMLID_66_" fill="#FFFFFF" d="M359.602,108.388c-4.646,0-8.664-1.694-11.739-4.771c-4.396-4.393-4.333-9.354-4.333-17.956
		c0-8.599-0.063-13.56,4.333-17.954c3.075-3.077,7.093-4.773,11.739-4.773c7.584,0,13.405,4.11,15.497,11.738
		c0.276,1.007-0.482,2.012-1.527,2.012h-3.785c-0.676,0-1.241-0.458-1.45-1.1c-1.276-3.922-4.187-6.558-8.734-6.558
		c-2.637,0-5.021,1.003-6.592,2.7c-2.197,2.384-2.7,4.958-2.7,13.936c0,8.979,0.503,11.553,2.7,13.938
		c1.571,1.696,3.956,2.7,6.592,2.7c4.548,0,7.511-2.636,8.795-6.558c0.211-0.642,0.776-1.1,1.452-1.1h3.732
		c1.043,0,1.802,1.001,1.529,2.008C373.044,104.278,367.07,108.388,359.602,108.388z"/>
	<path id="XMLID_64_" fill="#FFFFFF" d="M407.002,106.436V88.488h-18.144v17.948c0,0.871-0.706,1.577-1.576,1.577h-3.628
		c-0.87,0-1.576-0.706-1.576-1.577V64.888c0-0.871,0.706-1.576,1.576-1.576h3.628c0.87,0,1.576,0.706,1.576,1.576v17.508h18.144
		V64.888c0-0.871,0.706-1.576,1.576-1.576h3.627c0.871,0,1.577,0.706,1.577,1.576v41.548c0,0.871-0.706,1.577-1.577,1.577h-3.627
		C407.708,108.013,407.002,107.307,407.002,106.436z"/>
	<path id="XMLID_61_" fill="#FFFFFF" d="M449.514,106.947l-2.712-7.914h-17.641l-2.71,7.913c-0.219,0.638-0.817,1.066-1.491,1.066
		h-3.838c-1.095,0-1.856-1.09-1.479-2.119l15.229-41.548c0.228-0.621,0.818-1.034,1.479-1.034h3.26c0.661,0,1.252,0.413,1.479,1.034
		l15.231,41.548c0.378,1.029-0.384,2.119-1.479,2.119h-3.838C450.332,108.013,449.733,107.584,449.514,106.947z M438.14,73.419
		l-6.97,19.839h13.75L438.14,73.419z"/>
	<path id="XMLID_59_" fill="#FFFFFF" d="M489.155,107.301l-20.188-30.742v29.877c0,0.871-0.706,1.577-1.576,1.577h-3.628
		c-0.87,0-1.576-0.706-1.576-1.577V64.888c0-0.871,0.706-1.576,1.576-1.576h3.789c0.53,0,1.024,0.267,1.316,0.709l20.188,30.681
		V64.888c0-0.871,0.705-1.576,1.576-1.576h3.627c0.871,0,1.577,0.706,1.577,1.576v41.548c0,0.871-0.706,1.577-1.577,1.577h-3.787
		C489.941,108.013,489.446,107.745,489.155,107.301z"/>
	<path id="XMLID_57_" fill="#FFFFFF" d="M343.593,170.858v-3.808c0-0.298,0.084-0.589,0.243-0.841l20.412-32.387h-18.198
		c-0.871,0-1.576-0.706-1.576-1.576v-2.937c0-0.871,0.706-1.576,1.576-1.576h24.596c0.871,0,1.576,0.706,1.576,1.576v3.494
		c0,0.297-0.083,0.587-0.241,0.838l-20.539,32.703h19.204c0.871,0,1.576,0.706,1.576,1.576v2.938c0,0.87-0.705,1.576-1.576,1.576
		h-25.476C344.298,172.435,343.593,171.729,343.593,170.858z"/>
	<path id="XMLID_55_" fill="#FFFFFF" d="M394.001,172.81c-9.104,0-16.01-6.215-16.01-15.443V129.31c0-0.871,0.706-1.576,1.576-1.576
		h3.628c0.87,0,1.576,0.706,1.576,1.576v27.743c0,5.965,3.64,9.668,9.229,9.668c5.586,0,9.289-3.703,9.289-9.668V129.31
		c0-0.871,0.706-1.576,1.576-1.576h3.63c0.871,0,1.576,0.706,1.576,1.576v28.056C410.073,166.595,403.103,172.81,394.001,172.81z"/>
	<path id="XMLID_53_" fill="#FFFFFF" d="M431.85,172.81c-4.646,0-8.663-1.693-11.738-4.771c-4.396-4.394-4.333-9.354-4.333-17.956
		c0-8.599-0.062-13.56,4.333-17.954c3.075-3.077,7.093-4.773,11.738-4.773c7.584,0,13.405,4.11,15.497,11.738
		c0.276,1.007-0.482,2.012-1.527,2.012h-3.785c-0.676,0-1.241-0.458-1.45-1.1c-1.276-3.922-4.187-6.558-8.734-6.558
		c-2.637,0-5.021,1.003-6.592,2.7c-2.197,2.384-2.699,4.958-2.699,13.936c0,8.979,0.502,11.554,2.699,13.938
		c1.571,1.696,3.955,2.7,6.592,2.7c4.548,0,7.511-2.637,8.796-6.559c0.21-0.642,0.775-1.101,1.451-1.101h5.7
		C446.292,167.977,439.949,172.81,431.85,172.81z"/>
	<path id="XMLID_51_" fill="#FFFFFF" d="M480.744,171.639l-12.104-21.241l-7.533,9.04v11.421c0,0.87-0.705,1.576-1.576,1.576h-3.627
		c-0.871,0-1.576-0.706-1.576-1.576V129.31c0-0.871,0.705-1.576,1.576-1.576h3.627c0.871,0,1.576,0.706,1.576,1.576v20.9
		l17.796-21.895c0.3-0.369,0.749-0.582,1.224-0.582h4.185c1.334,0,2.064,1.554,1.214,2.582l-12.363,14.934l14.609,24.808
		c0.619,1.052-0.139,2.377-1.358,2.377h-4.3C481.546,172.435,481.024,172.131,480.744,171.639z"/>
	<path id="XMLID_48_" fill="#FFFFFF" d="M494.381,170.858V129.31c0-0.871,0.706-1.576,1.577-1.576h25.411
		c0.87,0,1.576,0.706,1.576,1.576v2.937c0,0.871-0.706,1.576-1.576,1.576h-20.208v13.06h17.008c0.87,0,1.576,0.706,1.576,1.576
		v2.875c0,0.871-0.706,1.576-1.576,1.576h-17.008v13.435h20.208c0.87,0,1.576,0.706,1.576,1.576v2.938
		c0,0.87-0.706,1.576-1.576,1.576h-25.411C495.087,172.435,494.381,171.729,494.381,170.858z"/>
	<path id="XMLID_44_" fill="#FFFFFF" d="M554.084,171.563l-8.983-17.963h-8.475v17.258c0,0.87-0.705,1.576-1.576,1.576h-3.627
		c-0.871,0-1.576-0.706-1.576-1.576V129.31c0-0.871,0.705-1.576,1.576-1.576h15.751c8.475,0,13.873,5.461,13.873,13.057
		c0,6.405-3.893,10.485-8.914,11.866l9.096,17.473c0.547,1.05-0.215,2.305-1.397,2.305h-4.337
		C554.897,172.435,554.351,172.097,554.084,171.563z M546.671,133.823h-10.045v14h10.045c4.521,0,7.597-2.574,7.597-6.968
		C554.268,136.46,551.193,133.823,546.671,133.823z"/>
	<path id="XMLID_10_" fill="#FFFFFF" d="M586.539,172.435h-16.504c-0.871,0-1.577-0.706-1.577-1.576V129.31
		c0-0.871,0.706-1.576,1.577-1.576h15.813c8.286,0,13.498,4.708,13.498,12.242c0,4.833-3.015,8.288-6.027,9.479
		c3.453,1.381,6.718,4.708,6.718,10.36C600.037,168.039,594.45,172.435,586.539,172.435z M585.283,133.823h-10.045v12.807h10.045
		c4.331,0,7.283-2.259,7.283-6.402C592.566,136.083,589.614,133.823,585.283,133.823z M585.911,152.72h-10.673v13.625h10.673
		c4.709,0,7.346-2.89,7.346-6.845C593.256,155.547,590.62,152.72,585.911,152.72z"/>
	<path id="XMLID_38_" fill="#FFFFFF" d="M606.314,170.858V129.31c0-0.871,0.705-1.576,1.576-1.576h25.411
		c0.871,0,1.576,0.706,1.576,1.576v2.937c0,0.871-0.705,1.576-1.576,1.576h-20.207v13.06h17.007c0.871,0,1.576,0.706,1.576,1.576
		v2.875c0,0.871-0.705,1.576-1.576,1.576h-17.007v13.435h20.207c0.871,0,1.576,0.706,1.576,1.576v2.938
		c0,0.87-0.705,1.576-1.576,1.576H607.89C607.019,172.435,606.314,171.729,606.314,170.858z"/>
	<path id="XMLID_35_" fill="#FFFFFF" d="M665.896,171.562l-8.981-17.962h-8.477v17.258c0,0.87-0.706,1.576-1.576,1.576h-3.628
		c-0.87,0-1.576-0.706-1.576-1.576V129.31c0-0.871,0.706-1.576,1.576-1.576h15.752c8.474,0,13.873,5.461,13.873,13.057
		c0,6.405-3.891,10.485-8.914,11.866l9.096,17.473c0.546,1.05-0.215,2.305-1.398,2.305h-4.337
		C666.708,172.435,666.163,172.097,665.896,171.562z M658.483,133.823h-10.045v14h10.045c4.521,0,7.596-2.574,7.596-6.968
		C666.079,136.46,663.003,133.823,658.483,133.823z"/>
	<path id="XMLID_33_" fill="#FFFFFF" d="M707.014,167.726c-3.391,3.578-7.599,5.084-12.307,5.084c-4.646,0-8.664-1.693-11.739-4.771
		c-4.396-4.394-4.333-9.354-4.333-17.956c0-8.599-0.062-13.56,4.333-17.954c3.075-3.077,6.968-4.773,11.739-4.773
		c8.645,0,14.002,5.17,15.831,11.889c0.271,0.999-0.498,1.986-1.533,1.986h-3.681c-0.667,0-1.285-0.414-1.484-1.05
		c-1.336-4.257-4.479-6.734-9.133-6.734c-2.637,0-5.021,1.066-6.593,2.762c-2.196,2.384-2.699,4.896-2.699,13.873
		c0,8.979,0.503,11.554,2.699,13.938c1.571,1.696,3.956,2.7,6.593,2.7c2.952,0,5.526-1.129,7.283-3.138
		c1.633-1.884,2.261-4.146,2.261-7.033v-2.511h-7.968c-0.87,0-1.576-0.706-1.576-1.577v-2.622c0-0.871,0.706-1.577,1.576-1.577
		h13.172c0.87,0,1.576,0.706,1.576,1.577v5.266C711.032,160.881,709.963,164.586,707.014,167.726z"/>
	<path id="XMLID_31_" fill="#FFFFFF" d="M346.419,235.277v-41.548c0-0.87,0.706-1.576,1.577-1.576h3.627
		c0.87,0,1.576,0.706,1.576,1.576v41.548c0,0.871-0.706,1.577-1.576,1.577h-3.627C347.125,236.854,346.419,236.148,346.419,235.277z
		"/>
	<path id="XMLID_29_" fill="#FFFFFF" d="M390.588,236.143L370.4,205.4v29.877c0,0.871-0.705,1.577-1.576,1.577h-3.627
		c-0.871,0-1.576-0.706-1.576-1.577v-41.548c0-0.87,0.705-1.576,1.576-1.576h3.788c0.53,0,1.025,0.267,1.317,0.71l20.188,30.681
		v-29.814c0-0.87,0.706-1.576,1.576-1.576h3.628c0.87,0,1.576,0.706,1.576,1.576v41.548c0,0.871-0.706,1.577-1.576,1.577h-3.788
		C391.375,236.854,390.88,236.587,390.588,236.143z"/>
	<path id="XMLID_27_" fill="#FFFFFF" d="M407.693,235.277v-41.548c0-0.87,0.706-1.576,1.576-1.576h3.627
		c0.871,0,1.577,0.706,1.577,1.576v41.548c0,0.871-0.706,1.577-1.577,1.577h-3.627C408.399,236.854,407.693,236.148,407.693,235.277
		z"/>
	<path id="XMLID_25_" fill="#FFFFFF" d="M440.022,198.245v37.032c0,0.871-0.705,1.577-1.576,1.577h-3.627
		c-0.871,0-1.577-0.706-1.577-1.577v-37.032h-12.304v-4.516c0-0.87,0.706-1.576,1.576-1.576h28.238c0.87,0,1.576,0.706,1.576,1.576
		v4.516H440.022z"/>
	<path id="XMLID_23_" fill="#FFFFFF" d="M460.049,235.277v-41.548c0-0.87,0.706-1.576,1.577-1.576h3.627
		c0.87,0,1.576,0.706,1.576,1.576v41.548c0,0.871-0.706,1.577-1.576,1.577h-3.627C460.755,236.854,460.049,236.148,460.049,235.277z
		"/>
	<path id="XMLID_20_" fill="#FFFFFF" d="M503.82,235.789l-2.712-7.912h-17.641l-2.71,7.912c-0.219,0.637-0.817,1.065-1.491,1.065
		h-3.838c-1.096,0-1.856-1.091-1.479-2.119l15.229-41.548c0.229-0.621,0.819-1.034,1.48-1.034h3.26c0.661,0,1.252,0.413,1.479,1.034
		l15.231,41.548c0.377,1.028-0.385,2.119-1.479,2.119h-3.838C504.637,236.854,504.039,236.426,503.82,235.789z M492.446,202.263
		l-6.97,19.838h13.75L492.446,202.263z"/>
	<path id="XMLID_18_" fill="#FFFFFF" d="M526.597,198.245v37.032c0,0.871-0.706,1.577-1.577,1.577h-3.627
		c-0.871,0-1.576-0.706-1.576-1.577v-37.032h-10.729c-0.87,0-1.576-0.706-1.576-1.576v-2.939c0-0.87,0.706-1.576,1.576-1.576h28.238
		c0.871,0,1.576,0.706,1.576,1.576v2.939c0,0.87-0.705,1.576-1.576,1.576H526.597z"/>
	<path id="XMLID_16_" fill="#FFFFFF" d="M545.369,235.277v-41.548c0-0.87,0.705-1.576,1.576-1.576h3.627
		c0.871,0,1.576,0.706,1.576,1.576v41.548c0,0.871-0.705,1.577-1.576,1.577h-3.627C546.074,236.854,545.369,236.148,545.369,235.277
		z"/>
	<path id="XMLID_14_" fill="#FFFFFF" d="M575.872,236.854h-2.995c-0.681,0-1.285-0.438-1.497-1.085l-13.655-41.548
		c-0.335-1.02,0.425-2.068,1.498-2.068h3.7c0.688,0,1.296,0.445,1.503,1.101l9.947,31.421l9.949-31.421
		c0.207-0.655,0.815-1.101,1.502-1.101h3.818c1.075,0,1.835,1.052,1.496,2.072l-13.771,41.548
		C577.154,236.419,576.55,236.854,575.872,236.854z"/>
	<path id="XMLID_12_" fill="#FFFFFF" d="M596.722,235.277v-41.548c0-0.87,0.705-1.576,1.576-1.576h25.411
		c0.87,0,1.576,0.706,1.576,1.576v2.939c0,0.87-0.706,1.576-1.576,1.576h-20.208v13.058h17.008c0.87,0,1.576,0.705,1.576,1.576
		v2.874c0,0.871-0.706,1.576-1.576,1.576h-17.008v13.436h20.208c0.87,0,1.576,0.706,1.576,1.576v2.937
		c0,0.871-0.706,1.577-1.576,1.577h-25.411C597.427,236.854,596.722,236.148,596.722,235.277z"/>
</g>
</svg>
